<svg width="34" height="20" viewBox="0 0 34 20" version="1.1" xmlns="http://www.w3.org/2000/svg" xmlns:xlink="http://www.w3.org/1999/xlink">
<title>Mastercard</title>
<desc>Created using Figma</desc>
<g id="Canvas" transform="translate(883 -1408)">
<g id="Mastercard">
<g id="Mastercard">
<g id="Ellipse">
<use xlink:href="#path0_fill" transform="translate(-883 1408)" fill="#494C5D"/>
</g>
<g id="Ellipse">
<use xlink:href="#path0_fill" transform="translate(-870.333 1408)" fill="#A5A9B9"/>
</g>
<g id="Intersect">
<use xlink:href="#path1_fill" transform="translate(-870.333 1410.1)" fill="#808494"/>
</g>
</g>
</g>
</g>
<defs>
<path id="path0_fill" d="M 20.6667 10C 20.6667 15.5228 16.0403 20 10.3333 20C 4.62639 20 0 15.5228 0 10C 0 4.47715 4.62639 0 10.3333 0C 16.0403 0 20.6667 4.47715 20.6667 10Z"/>
<path id="path1_fill" fill-rule="evenodd" d="M 4 15.8042C 6.4339 13.9747 8 11.1154 8 7.9021C 8 4.68884 6.4339 1.82947 4 0C 1.56616 1.82947 0 4.68884 0 7.9021C 0 11.1154 1.56616 13.9747 4 15.8042Z"/>
</defs>
</svg>
