<svg width="42" height="14" viewBox="0 0 42 14" version="1.1" xmlns="http://www.w3.org/2000/svg" xmlns:xlink="http://www.w3.org/1999/xlink">
<title>Visa</title>
<desc>Created using Figma</desc>
<g id="Canvas" transform="translate(843 -1411)">
<g id="Visa">
<g id="Visa">
<g id="Vector">
<use xlink:href="#path0_fill" transform="translate(-843 1411)" fill="url(#paint0_linear)"/>
</g>
</g>
</g>
</g>
<defs>
<linearGradient id="paint0_linear" x1="0" y1="0" x2="1" y2="0" gradientUnits="userSpaceOnUse" gradientTransform="matrix(41.995 0 0 43.3026 -0.00562602 -14.6597)">
<stop offset="0" stop-color="#4E5162"/>
<stop offset="1" stop-color="#686C7C"/>
</linearGradient>
<path id="path0_fill" d="M 12.374 0.251498L 8.84553 9.45629L 7.41463 1.62635C 7.25203 0.754491 6.58536 0.251498 5.85366 0.251498L 0.0813011 0.251498L 2.4811e-07 0.637127C 1.18699 0.90539 2.53659 1.32455 3.34959 1.79401C 3.85366 2.07904 3.98374 2.31377 4.1626 2.98443L 6.86179 13.782L 10.4553 13.782L 15.9512 0.251498L 12.374 0.251498ZM 17.3984 0.251498L 14.5854 13.782L 17.9837 13.782L 20.7967 0.251498L 17.3984 0.251498ZM 36.8455 3.90659L 37.8699 8.98682L 35.0569 8.98682L 36.8455 3.90659ZM 36.3577 0.251498C 35.7073 0.251498 35.1545 0.637125 34.9106 1.24072L 29.8211 13.782L 33.3821 13.782L 34.0976 11.7533L 38.4553 11.7533L 38.8618 13.782L 42 13.782L 39.2683 0.251498L 36.3577 0.251498ZM 21.7073 4.47665C 21.6911 6.42156 23.3984 7.51138 24.6829 8.16527C 26 8.83593 26.4553 9.25509 26.439 9.84192C 26.4228 10.7473 25.3821 11.1497 24.4065 11.1665C 22.6992 11.2 21.7073 10.697 20.9268 10.3114L 20.3089 13.279C 21.1057 13.6479 22.5691 13.9832 24.0813 14C 27.6423 14 29.9837 12.1892 29.9837 9.37246C 30 5.8012 25.2033 5.6 25.2358 4.00719C 25.252 3.52096 25.6911 3.0012 26.6829 2.86706C 27.1707 2.8 28.5041 2.7497 30.0325 3.47066L 30.6341 0.603592C 29.8211 0.301795 28.7642 5.11672e-07 27.4634 5.11672e-07C 24.0976 5.11672e-07 21.7236 1.84431 21.7073 4.47665Z"/>
</defs>
</svg>
